<svg xmlns="http://www.w3.org/2000/svg" width="512" height="512" viewBox="0 0 512 512">
  <defs>
    <linearGradient id="metal" x1="0" y1="0" x2="1" y2="1">
      <stop offset="0" stop-color="#f8fafc"/><stop offset="0.18" stop-color="#64748b"/>
      <stop offset="0.52" stop-color="#0f172a"/><stop offset="0.82" stop-color="#475569"/><stop offset="1" stop-color="#020617"/>
    </linearGradient>
    <linearGradient id="accent" x1="0" y1="0" x2="1" y2="1">
      <stop offset="0" stop-color="#8b7cf6"/><stop offset="1" stop-color="#38bdf8"/>
    </linearGradient>
    <linearGradient id="blue" x1="0" y1="0" x2="1" y2="1">
      <stop offset="0" stop-color="#38bdf8"/><stop offset="0.55" stop-color="#0878d8"/><stop offset="1" stop-color="#1d4ed8"/>
    </linearGradient>
    <radialGradient id="glow"><stop offset="0" stop-color="#8b7cf6" stop-opacity=".42"/><stop offset="1" stop-color="#8b7cf6" stop-opacity="0"/></radialGradient>
    <filter id="shadow" x="-40%" y="-40%" width="180%" height="180%"><feDropShadow dx="0" dy="18" stdDeviation="16" flood-color="#000" flood-opacity=".62"/></filter>
    <filter id="soft" x="-40%" y="-40%" width="180%" height="180%"><feGaussianBlur stdDeviation="24"/></filter>
  </defs><circle cx="256" cy="256" r="210" fill="url(#glow)" opacity=".4"/><g filter="url(#shadow)"><path d="M146 356h226c61 0 102-39 102-96 0-52-38-91-88-96-17-59-69-98-132-98-69 0-126 48-139 115-48 9-82 47-82 93 0 48 39 82 113 82z" fill="#0f243b" stroke="url(#accent)" stroke-width="17"/><g fill="none" stroke="#bde8ff" stroke-width="14" stroke-linecap="round" stroke-linejoin="round"><path d="M204 304v-90"/><path d="M256 304V158"/><path d="M308 304v-96"/><path d="M204 236l-27-27v-39"/><path d="M308 238l29-29v-38"/><circle cx="177" cy="152" r="18" fill="#10243b"/><circle cx="256" cy="132" r="18" fill="#10243b"/><circle cx="337" cy="151" r="18" fill="#10243b"/></g></g></svg>