<svg xmlns="http://www.w3.org/2000/svg" width="512" height="512" viewBox="0 0 512 512">
  <defs>
    <linearGradient id="metal" x1="0" y1="0" x2="1" y2="1">
      <stop offset="0" stop-color="#f8fafc"/><stop offset="0.18" stop-color="#64748b"/>
      <stop offset="0.52" stop-color="#0f172a"/><stop offset="0.82" stop-color="#475569"/><stop offset="1" stop-color="#020617"/>
    </linearGradient>
    <linearGradient id="accent" x1="0" y1="0" x2="1" y2="1">
      <stop offset="0" stop-color="#32d5e8"/><stop offset="1" stop-color="#8b5cf6"/>
    </linearGradient>
    <linearGradient id="blue" x1="0" y1="0" x2="1" y2="1">
      <stop offset="0" stop-color="#38bdf8"/><stop offset="0.55" stop-color="#0878d8"/><stop offset="1" stop-color="#1d4ed8"/>
    </linearGradient>
    <radialGradient id="glow"><stop offset="0" stop-color="#32d5e8" stop-opacity=".42"/><stop offset="1" stop-color="#32d5e8" stop-opacity="0"/></radialGradient>
    <filter id="shadow" x="-40%" y="-40%" width="180%" height="180%"><feDropShadow dx="0" dy="18" stdDeviation="16" flood-color="#000" flood-opacity=".62"/></filter>
    <filter id="soft" x="-40%" y="-40%" width="180%" height="180%"><feGaussianBlur stdDeviation="24"/></filter>
  </defs><circle cx="256" cy="256" r="210" fill="url(#glow)" opacity=".4"/><g filter="url(#shadow)"><path d="M256 73c105 0 184 78 184 183 0 103-73 181-178 183-76 2-142-42-174-105l62-31c20 39 58 67 106 67 67 0 116-49 116-114 0-66-49-115-116-115-41 0-77 19-98 52l-57-37C133 104 190 73 256 73z" fill="#071827" stroke="url(#accent)" stroke-width="18"/><path d="M139 256h94l55-55" fill="none" stroke="#38d7e8" stroke-width="14" stroke-linecap="round"/><circle cx="258" cy="256" r="40" fill="#0a1c2e" stroke="url(#accent)" stroke-width="17"/><path d="M304 147h84l-27-28m27 28-27 28" fill="none" stroke="#40e0e8" stroke-width="14" stroke-linecap="round" stroke-linejoin="round"/><path d="M308 304a74 74 0 0 1-74 26" fill="none" stroke="#8b5cf6" stroke-width="12" stroke-linecap="round"/></g></svg>